<mxfile host="drawio-plugin" modified="2023-08-13T21:55:22.882Z" agent="5.0 (Windows NT 10.0; Win64; x64) AppleWebKit/537.36 (KHTML, like Gecko) Chrome/111.0.0.0 Safari/537.36" etag="c8KczunCxNVRDTW_bDlZ" version="20.5.3" type="embed"><diagram id="C5RBs43oDa-KdzZeNtuy" name="Page-1"><mxGraphModel dx="1183" dy="630" grid="1" gridSize="10" guides="1" tooltips="1" connect="1" arrows="1" fold="1" page="1" pageScale="1" pageWidth="827" pageHeight="1169" math="0" shadow="0"><root><mxCell id="WIyWlLk6GJQsqaUBKTNV-0"/><mxCell id="WIyWlLk6GJQsqaUBKTNV-1" parent="WIyWlLk6GJQsqaUBKTNV-0"/><mxCell id="1vH7liSv2I_OhQFEqAJn-0" value="&lt;A&gt; Displayable" style="swimlane;fontStyle=2;align=center;verticalAlign=top;childLayout=stackLayout;horizontal=1;startSize=26;horizontalStack=0;resizeParent=1;resizeLast=0;collapsible=1;marginBottom=0;rounded=0;shadow=0;strokeWidth=1;" parent="WIyWlLk6GJQsqaUBKTNV-1" vertex="1"><mxGeometry x="348" y="373" width="160" height="138" as="geometry"><mxRectangle x="230" y="140" width="160" height="26" as="alternateBounds"/></mxGeometry></mxCell><mxCell id="1vH7liSv2I_OhQFEqAJn-4" value="" style="line;html=1;strokeWidth=1;align=left;verticalAlign=middle;spacingTop=-1;spacingLeft=3;spacingRight=3;rotatable=0;labelPosition=right;points=[];portConstraint=eastwest;" parent="1vH7liSv2I_OhQFEqAJn-0" vertex="1"><mxGeometry y="26" width="160" height="8" as="geometry"/></mxCell><mxCell id="1vH7liSv2I_OhQFEqAJn-5" value="+display()" style="text;align=left;verticalAlign=top;spacingLeft=4;spacingRight=4;overflow=hidden;rotatable=0;points=[[0,0.5],[1,0.5]];portConstraint=eastwest;" parent="1vH7liSv2I_OhQFEqAJn-0" vertex="1"><mxGeometry y="34" width="160" height="26" as="geometry"/></mxCell><mxCell id="1vH7liSv2I_OhQFEqAJn-10" value="" style="endArrow=block;endSize=10;endFill=0;shadow=0;strokeWidth=1;rounded=0;edgeStyle=elbowEdgeStyle;elbow=vertical;exitX=0.5;exitY=0;exitDx=0;exitDy=0;entryX=0.5;entryY=1;entryDx=0;entryDy=0;" parent="WIyWlLk6GJQsqaUBKTNV-1" source="1vH7liSv2I_OhQFEqAJn-6" target="1vH7liSv2I_OhQFEqAJn-0" edge="1"><mxGeometry width="160" relative="1" as="geometry"><mxPoint x="428" y="820" as="sourcePoint"/><mxPoint x="390" y="680" as="targetPoint"/></mxGeometry></mxCell><mxCell id="1vH7liSv2I_OhQFEqAJn-6" value="&lt;A&gt; UnitView" style="swimlane;fontStyle=2;align=center;verticalAlign=top;childLayout=stackLayout;horizontal=1;startSize=26;horizontalStack=0;resizeParent=1;resizeLast=0;collapsible=1;marginBottom=0;rounded=0;shadow=0;strokeWidth=1;fillColor=#a0522d;strokeColor=#6D1F00;fontColor=#ffffff;" parent="WIyWlLk6GJQsqaUBKTNV-1" vertex="1"><mxGeometry x="348" y="810" width="160" height="90" as="geometry"><mxRectangle x="230" y="140" width="160" height="26" as="alternateBounds"/></mxGeometry></mxCell><mxCell id="1vH7liSv2I_OhQFEqAJn-9" value="+Sprites" style="text;align=left;verticalAlign=top;spacingLeft=4;spacingRight=4;overflow=hidden;rotatable=0;points=[[0,0.5],[1,0.5]];portConstraint=eastwest;rounded=0;shadow=0;html=0;fillColor=#a0522d;strokeColor=#6D1F00;fontColor=#ffffff;" parent="1vH7liSv2I_OhQFEqAJn-6" vertex="1"><mxGeometry y="26" width="160" height="26" as="geometry"/></mxCell><mxCell id="1vH7liSv2I_OhQFEqAJn-7" value="" style="line;html=1;strokeWidth=1;align=left;verticalAlign=middle;spacingTop=-1;spacingLeft=3;spacingRight=3;rotatable=0;labelPosition=right;points=[];portConstraint=eastwest;fillColor=#a0522d;strokeColor=#6D1F00;fontColor=#ffffff;" parent="1vH7liSv2I_OhQFEqAJn-6" vertex="1"><mxGeometry y="52" width="160" height="8" as="geometry"/></mxCell><mxCell id="1vH7liSv2I_OhQFEqAJn-8" value="+display()" style="text;align=left;verticalAlign=top;spacingLeft=4;spacingRight=4;overflow=hidden;rotatable=0;points=[[0,0.5],[1,0.5]];portConstraint=eastwest;fillColor=#a0522d;strokeColor=#6D1F00;fontColor=#ffffff;" parent="1vH7liSv2I_OhQFEqAJn-6" vertex="1"><mxGeometry y="60" width="160" height="30" as="geometry"/></mxCell><mxCell id="1vH7liSv2I_OhQFEqAJn-11" value="&lt;C,S&gt; UnitViewHandler" style="swimlane;fontStyle=2;align=center;verticalAlign=top;childLayout=stackLayout;horizontal=1;startSize=26;horizontalStack=0;resizeParent=1;resizeLast=0;collapsible=1;marginBottom=0;rounded=0;shadow=0;strokeWidth=1;fillColor=#a0522d;strokeColor=#6D1F00;fontColor=#ffffff;" parent="WIyWlLk6GJQsqaUBKTNV-1" vertex="1"><mxGeometry x="80" y="810" width="160" height="180" as="geometry"><mxRectangle x="230" y="140" width="160" height="26" as="alternateBounds"/></mxGeometry></mxCell><mxCell id="1vH7liSv2I_OhQFEqAJn-12" value="+UnitViewHandler::Iterator" style="text;align=left;verticalAlign=top;spacingLeft=4;spacingRight=4;overflow=hidden;rotatable=0;points=[[0,0.5],[1,0.5]];portConstraint=eastwest;rounded=0;shadow=0;html=0;fillColor=#a0522d;strokeColor=#6D1F00;fontColor=#ffffff;" parent="1vH7liSv2I_OhQFEqAJn-11" vertex="1"><mxGeometry y="26" width="160" height="26" as="geometry"/></mxCell><mxCell id="1vH7liSv2I_OhQFEqAJn-13" value="" style="line;html=1;strokeWidth=1;align=left;verticalAlign=middle;spacingTop=-1;spacingLeft=3;spacingRight=3;rotatable=0;labelPosition=right;points=[];portConstraint=eastwest;fillColor=#a0522d;strokeColor=#6D1F00;fontColor=#ffffff;" parent="1vH7liSv2I_OhQFEqAJn-11" vertex="1"><mxGeometry y="52" width="160" height="8" as="geometry"/></mxCell><mxCell id="1vH7liSv2I_OhQFEqAJn-14" value="+displayUnits()&#10;" style="text;align=left;verticalAlign=top;spacingLeft=4;spacingRight=4;overflow=hidden;rotatable=0;points=[[0,0.5],[1,0.5]];portConstraint=eastwest;fillColor=#a0522d;strokeColor=#6D1F00;fontColor=#ffffff;" parent="1vH7liSv2I_OhQFEqAJn-11" vertex="1"><mxGeometry y="60" width="160" height="30" as="geometry"/></mxCell><mxCell id="1vH7liSv2I_OhQFEqAJn-35" value="+begins()" style="text;align=left;verticalAlign=top;spacingLeft=4;spacingRight=4;overflow=hidden;rotatable=0;points=[[0,0.5],[1,0.5]];portConstraint=eastwest;fillColor=#a0522d;strokeColor=#6D1F00;fontColor=#ffffff;" parent="1vH7liSv2I_OhQFEqAJn-11" vertex="1"><mxGeometry y="90" width="160" height="30" as="geometry"/></mxCell><mxCell id="1vH7liSv2I_OhQFEqAJn-36" value="+ends()" style="text;align=left;verticalAlign=top;spacingLeft=4;spacingRight=4;overflow=hidden;rotatable=0;points=[[0,0.5],[1,0.5]];portConstraint=eastwest;fillColor=#a0522d;strokeColor=#6D1F00;fontColor=#ffffff;" parent="1vH7liSv2I_OhQFEqAJn-11" vertex="1"><mxGeometry y="120" width="160" height="30" as="geometry"/></mxCell><mxCell id="1vH7liSv2I_OhQFEqAJn-37" value="+get()" style="text;align=left;verticalAlign=top;spacingLeft=4;spacingRight=4;overflow=hidden;rotatable=0;points=[[0,0.5],[1,0.5]];portConstraint=eastwest;fillColor=#a0522d;strokeColor=#6D1F00;fontColor=#ffffff;" parent="1vH7liSv2I_OhQFEqAJn-11" vertex="1"><mxGeometry y="150" width="160" height="30" as="geometry"/></mxCell><mxCell id="1vH7liSv2I_OhQFEqAJn-24" value="&lt;A&gt; UnitModel" style="swimlane;fontStyle=2;align=center;verticalAlign=top;childLayout=stackLayout;horizontal=1;startSize=26;horizontalStack=0;resizeParent=1;resizeLast=0;collapsible=1;marginBottom=0;rounded=0;shadow=0;strokeWidth=1;fillColor=#a0522d;strokeColor=#6D1F00;fontColor=#ffffff;" parent="WIyWlLk6GJQsqaUBKTNV-1" vertex="1"><mxGeometry x="620" y="820" width="160" height="108" as="geometry"><mxRectangle x="230" y="140" width="160" height="26" as="alternateBounds"/></mxGeometry></mxCell><mxCell id="1vH7liSv2I_OhQFEqAJn-25" value="+Name" style="text;align=left;verticalAlign=top;spacingLeft=4;spacingRight=4;overflow=hidden;rotatable=0;points=[[0,0.5],[1,0.5]];portConstraint=eastwest;fillColor=#a0522d;strokeColor=#6D1F00;fontColor=#ffffff;" parent="1vH7liSv2I_OhQFEqAJn-24" vertex="1"><mxGeometry y="26" width="160" height="26" as="geometry"/></mxCell><mxCell id="1vH7liSv2I_OhQFEqAJn-26" value="+MaxHP" style="text;align=left;verticalAlign=top;spacingLeft=4;spacingRight=4;overflow=hidden;rotatable=0;points=[[0,0.5],[1,0.5]];portConstraint=eastwest;rounded=0;shadow=0;html=0;fillColor=#a0522d;strokeColor=#6D1F00;fontColor=#ffffff;" parent="1vH7liSv2I_OhQFEqAJn-24" vertex="1"><mxGeometry y="52" width="160" height="26" as="geometry"/></mxCell><mxCell id="1vH7liSv2I_OhQFEqAJn-27" value="+level" style="text;align=left;verticalAlign=top;spacingLeft=4;spacingRight=4;overflow=hidden;rotatable=0;points=[[0,0.5],[1,0.5]];portConstraint=eastwest;rounded=0;shadow=0;html=0;fillColor=#a0522d;strokeColor=#6D1F00;fontColor=#ffffff;" parent="1vH7liSv2I_OhQFEqAJn-24" vertex="1"><mxGeometry y="78" width="160" height="22" as="geometry"/></mxCell><mxCell id="1vH7liSv2I_OhQFEqAJn-28" value="" style="line;html=1;strokeWidth=1;align=left;verticalAlign=middle;spacingTop=-1;spacingLeft=3;spacingRight=3;rotatable=0;labelPosition=right;points=[];portConstraint=eastwest;fillColor=#a0522d;strokeColor=#6D1F00;fontColor=#ffffff;" parent="1vH7liSv2I_OhQFEqAJn-24" vertex="1"><mxGeometry y="100" width="160" height="8" as="geometry"/></mxCell><mxCell id="1vH7liSv2I_OhQFEqAJn-38" value="&lt;C,S&gt; UnitModelHandler" style="swimlane;fontStyle=2;align=center;verticalAlign=top;childLayout=stackLayout;horizontal=1;startSize=26;horizontalStack=0;resizeParent=1;resizeLast=0;collapsible=1;marginBottom=0;rounded=0;shadow=0;strokeWidth=1;fillColor=#a0522d;strokeColor=#6D1F00;fontColor=#ffffff;" parent="WIyWlLk6GJQsqaUBKTNV-1" vertex="1"><mxGeometry x="970" y="810" width="160" height="180" as="geometry"><mxRectangle x="230" y="140" width="160" height="26" as="alternateBounds"/></mxGeometry></mxCell><mxCell id="1vH7liSv2I_OhQFEqAJn-39" value="+UnitModelHandler::Iterator" style="text;align=left;verticalAlign=top;spacingLeft=4;spacingRight=4;overflow=hidden;rotatable=0;points=[[0,0.5],[1,0.5]];portConstraint=eastwest;rounded=0;shadow=0;html=0;fillColor=#a0522d;strokeColor=#6D1F00;fontColor=#ffffff;" parent="1vH7liSv2I_OhQFEqAJn-38" vertex="1"><mxGeometry y="26" width="160" height="26" as="geometry"/></mxCell><mxCell id="1vH7liSv2I_OhQFEqAJn-40" value="" style="line;html=1;strokeWidth=1;align=left;verticalAlign=middle;spacingTop=-1;spacingLeft=3;spacingRight=3;rotatable=0;labelPosition=right;points=[];portConstraint=eastwest;fillColor=#a0522d;strokeColor=#6D1F00;fontColor=#ffffff;" parent="1vH7liSv2I_OhQFEqAJn-38" vertex="1"><mxGeometry y="52" width="160" height="8" as="geometry"/></mxCell><mxCell id="1vH7liSv2I_OhQFEqAJn-41" value="+initiate()" style="text;align=left;verticalAlign=top;spacingLeft=4;spacingRight=4;overflow=hidden;rotatable=0;points=[[0,0.5],[1,0.5]];portConstraint=eastwest;fillColor=#a0522d;strokeColor=#6D1F00;fontColor=#ffffff;" parent="1vH7liSv2I_OhQFEqAJn-38" vertex="1"><mxGeometry y="60" width="160" height="30" as="geometry"/></mxCell><mxCell id="1vH7liSv2I_OhQFEqAJn-42" value="+begins()" style="text;align=left;verticalAlign=top;spacingLeft=4;spacingRight=4;overflow=hidden;rotatable=0;points=[[0,0.5],[1,0.5]];portConstraint=eastwest;fillColor=#a0522d;strokeColor=#6D1F00;fontColor=#ffffff;" parent="1vH7liSv2I_OhQFEqAJn-38" vertex="1"><mxGeometry y="90" width="160" height="30" as="geometry"/></mxCell><mxCell id="1vH7liSv2I_OhQFEqAJn-43" value="+ends()" style="text;align=left;verticalAlign=top;spacingLeft=4;spacingRight=4;overflow=hidden;rotatable=0;points=[[0,0.5],[1,0.5]];portConstraint=eastwest;fillColor=#a0522d;strokeColor=#6D1F00;fontColor=#ffffff;" parent="1vH7liSv2I_OhQFEqAJn-38" vertex="1"><mxGeometry y="120" width="160" height="30" as="geometry"/></mxCell><mxCell id="1vH7liSv2I_OhQFEqAJn-44" value="+get()" style="text;align=left;verticalAlign=top;spacingLeft=4;spacingRight=4;overflow=hidden;rotatable=0;points=[[0,0.5],[1,0.5]];portConstraint=eastwest;fillColor=#a0522d;strokeColor=#6D1F00;fontColor=#ffffff;" parent="1vH7liSv2I_OhQFEqAJn-38" vertex="1"><mxGeometry y="150" width="160" height="30" as="geometry"/></mxCell><mxCell id="1vH7liSv2I_OhQFEqAJn-45" value="HeroView" style="swimlane;fontStyle=2;align=center;verticalAlign=top;childLayout=stackLayout;horizontal=1;startSize=26;horizontalStack=0;resizeParent=1;resizeLast=0;collapsible=1;marginBottom=0;rounded=0;shadow=0;strokeWidth=1;fillColor=#a0522d;strokeColor=#6D1F00;fontColor=#ffffff;" parent="WIyWlLk6GJQsqaUBKTNV-1" vertex="1"><mxGeometry x="230" y="1040" width="160" height="60" as="geometry"><mxRectangle x="230" y="140" width="160" height="26" as="alternateBounds"/></mxGeometry></mxCell><mxCell id="1vH7liSv2I_OhQFEqAJn-46" value="" style="line;html=1;strokeWidth=1;align=left;verticalAlign=middle;spacingTop=-1;spacingLeft=3;spacingRight=3;rotatable=0;labelPosition=right;points=[];portConstraint=eastwest;fillColor=#a0522d;strokeColor=#6D1F00;fontColor=#ffffff;" parent="1vH7liSv2I_OhQFEqAJn-45" vertex="1"><mxGeometry y="26" width="160" height="8" as="geometry"/></mxCell><mxCell id="1vH7liSv2I_OhQFEqAJn-47" value="+display()" style="text;align=left;verticalAlign=top;spacingLeft=4;spacingRight=4;overflow=hidden;rotatable=0;points=[[0,0.5],[1,0.5]];portConstraint=eastwest;fillColor=#a0522d;strokeColor=#6D1F00;fontColor=#ffffff;" parent="1vH7liSv2I_OhQFEqAJn-45" vertex="1"><mxGeometry y="34" width="160" height="26" as="geometry"/></mxCell><mxCell id="1vH7liSv2I_OhQFEqAJn-50" value="NPCView" style="swimlane;fontStyle=2;align=center;verticalAlign=top;childLayout=stackLayout;horizontal=1;startSize=26;horizontalStack=0;resizeParent=1;resizeLast=0;collapsible=1;marginBottom=0;rounded=0;shadow=0;strokeWidth=1;fillColor=#a0522d;strokeColor=#6D1F00;fontColor=#ffffff;" parent="WIyWlLk6GJQsqaUBKTNV-1" vertex="1"><mxGeometry x="414" y="1040" width="160" height="60" as="geometry"><mxRectangle x="230" y="140" width="160" height="26" as="alternateBounds"/></mxGeometry></mxCell><mxCell id="1vH7liSv2I_OhQFEqAJn-51" value="" style="line;html=1;strokeWidth=1;align=left;verticalAlign=middle;spacingTop=-1;spacingLeft=3;spacingRight=3;rotatable=0;labelPosition=right;points=[];portConstraint=eastwest;fillColor=#a0522d;strokeColor=#6D1F00;fontColor=#ffffff;" parent="1vH7liSv2I_OhQFEqAJn-50" vertex="1"><mxGeometry y="26" width="160" height="8" as="geometry"/></mxCell><mxCell id="1vH7liSv2I_OhQFEqAJn-52" value="+display()" style="text;align=left;verticalAlign=top;spacingLeft=4;spacingRight=4;overflow=hidden;rotatable=0;points=[[0,0.5],[1,0.5]];portConstraint=eastwest;fillColor=#a0522d;strokeColor=#6D1F00;fontColor=#ffffff;" parent="1vH7liSv2I_OhQFEqAJn-50" vertex="1"><mxGeometry y="34" width="160" height="26" as="geometry"/></mxCell><mxCell id="1vH7liSv2I_OhQFEqAJn-54" value="NPCModel" style="swimlane;fontStyle=2;align=center;verticalAlign=top;childLayout=stackLayout;horizontal=1;startSize=26;horizontalStack=0;resizeParent=1;resizeLast=0;collapsible=1;marginBottom=0;rounded=0;shadow=0;strokeWidth=1;fillColor=#a0522d;strokeColor=#6D1F00;fontColor=#ffffff;" parent="WIyWlLk6GJQsqaUBKTNV-1" vertex="1"><mxGeometry x="770" y="1040" width="160" height="58" as="geometry"><mxRectangle x="230" y="140" width="160" height="26" as="alternateBounds"/></mxGeometry></mxCell><mxCell id="1vH7liSv2I_OhQFEqAJn-58" value="+AI" style="text;align=left;verticalAlign=top;spacingLeft=4;spacingRight=4;overflow=hidden;rotatable=0;points=[[0,0.5],[1,0.5]];portConstraint=eastwest;fillColor=#a0522d;strokeColor=#6D1F00;fontColor=#ffffff;" parent="1vH7liSv2I_OhQFEqAJn-54" vertex="1"><mxGeometry y="26" width="160" height="24" as="geometry"/></mxCell><mxCell id="1vH7liSv2I_OhQFEqAJn-55" value="" style="line;html=1;strokeWidth=1;align=left;verticalAlign=middle;spacingTop=-1;spacingLeft=3;spacingRight=3;rotatable=0;labelPosition=right;points=[];portConstraint=eastwest;fillColor=#a0522d;strokeColor=#6D1F00;fontColor=#ffffff;" parent="1vH7liSv2I_OhQFEqAJn-54" vertex="1"><mxGeometry y="50" width="160" height="8" as="geometry"/></mxCell><mxCell id="1vH7liSv2I_OhQFEqAJn-59" value="" style="endArrow=block;endSize=10;endFill=0;shadow=0;strokeWidth=1;rounded=0;edgeStyle=elbowEdgeStyle;elbow=vertical;exitX=0.5;exitY=0;exitDx=0;exitDy=0;entryX=0.5;entryY=1;entryDx=0;entryDy=0;fillColor=#a0522d;strokeColor=#6D1F00;" parent="WIyWlLk6GJQsqaUBKTNV-1" source="1vH7liSv2I_OhQFEqAJn-45" target="1vH7liSv2I_OhQFEqAJn-6" edge="1"><mxGeometry width="160" relative="1" as="geometry"><mxPoint x="438" y="820" as="sourcePoint"/><mxPoint x="438" y="758" as="targetPoint"/></mxGeometry></mxCell><mxCell id="1vH7liSv2I_OhQFEqAJn-60" value="" style="endArrow=block;endSize=10;endFill=0;shadow=0;strokeWidth=1;rounded=0;edgeStyle=elbowEdgeStyle;elbow=vertical;exitX=0.5;exitY=0;exitDx=0;exitDy=0;entryX=0.5;entryY=1;entryDx=0;entryDy=0;fillColor=#a0522d;strokeColor=#6D1F00;" parent="WIyWlLk6GJQsqaUBKTNV-1" source="1vH7liSv2I_OhQFEqAJn-50" target="1vH7liSv2I_OhQFEqAJn-6" edge="1"><mxGeometry width="160" relative="1" as="geometry"><mxPoint x="320" y="1050" as="sourcePoint"/><mxPoint x="438" y="958" as="targetPoint"/></mxGeometry></mxCell><mxCell id="1vH7liSv2I_OhQFEqAJn-61" value="" style="endArrow=block;endSize=10;endFill=0;shadow=0;strokeWidth=1;rounded=0;edgeStyle=elbowEdgeStyle;elbow=vertical;exitX=0.5;exitY=0;exitDx=0;exitDy=0;entryX=0.5;entryY=1;entryDx=0;entryDy=0;fillColor=#a0522d;strokeColor=#6D1F00;" parent="WIyWlLk6GJQsqaUBKTNV-1" source="1vH7liSv2I_OhQFEqAJn-54" target="1vH7liSv2I_OhQFEqAJn-24" edge="1"><mxGeometry width="160" relative="1" as="geometry"><mxPoint x="330" y="1060" as="sourcePoint"/><mxPoint x="448" y="968" as="targetPoint"/></mxGeometry></mxCell><mxCell id="sq3aHIqoVILuNet5_geI-5" value="" style="endArrow=diamondThin;endFill=1;endSize=24;html=1;rounded=0;entryX=1;entryY=0.5;entryDx=0;entryDy=0;exitX=0;exitY=0.5;exitDx=0;exitDy=0;fillColor=#a0522d;strokeColor=#6D1F00;" parent="WIyWlLk6GJQsqaUBKTNV-1" source="1vH7liSv2I_OhQFEqAJn-26" target="1vH7liSv2I_OhQFEqAJn-8" edge="1"><mxGeometry width="160" relative="1" as="geometry"><mxPoint x="562" y="896.5" as="sourcePoint"/><mxPoint x="560" y="891.5" as="targetPoint"/></mxGeometry></mxCell><mxCell id="sq3aHIqoVILuNet5_geI-6" value="" style="endArrow=diamondThin;endFill=1;endSize=24;html=1;rounded=0;entryX=1;entryY=0.5;entryDx=0;entryDy=0;exitX=0;exitY=0.5;exitDx=0;exitDy=0;fillColor=#a0522d;strokeColor=#6D1F00;" parent="WIyWlLk6GJQsqaUBKTNV-1" source="1vH7liSv2I_OhQFEqAJn-8" target="1vH7liSv2I_OhQFEqAJn-14" edge="1"><mxGeometry width="160" relative="1" as="geometry"><mxPoint x="630" y="895" as="sourcePoint"/><mxPoint x="518" y="895" as="targetPoint"/></mxGeometry></mxCell><mxCell id="sq3aHIqoVILuNet5_geI-17" style="edgeStyle=orthogonalEdgeStyle;rounded=0;orthogonalLoop=1;jettySize=auto;html=1;exitX=1;exitY=0.5;exitDx=0;exitDy=0;entryX=1;entryY=0.5;entryDx=0;entryDy=0;fillColor=#a0522d;strokeColor=#6D1F00;" parent="WIyWlLk6GJQsqaUBKTNV-1" source="sq3aHIqoVILuNet5_geI-8" target="1vH7liSv2I_OhQFEqAJn-25" edge="1"><mxGeometry relative="1" as="geometry"><Array as="points"><mxPoint x="870" y="695"/><mxPoint x="870" y="859"/></Array></mxGeometry></mxCell><mxCell id="sq3aHIqoVILuNet5_geI-8" value="UnitIdex" style="swimlane;fontStyle=2;align=center;verticalAlign=top;childLayout=stackLayout;horizontal=1;startSize=26;horizontalStack=0;resizeParent=1;resizeLast=0;collapsible=1;marginBottom=0;rounded=0;shadow=0;strokeWidth=1;fillColor=#a0522d;strokeColor=#6D1F00;fontColor=#ffffff;" parent="WIyWlLk6GJQsqaUBKTNV-1" vertex="1"><mxGeometry x="970" y="620" width="160" height="150" as="geometry"><mxRectangle x="230" y="140" width="160" height="26" as="alternateBounds"/></mxGeometry></mxCell><mxCell id="sq3aHIqoVILuNet5_geI-9" value="+UnitIndex::UnitTemplate" style="text;align=left;verticalAlign=top;spacingLeft=4;spacingRight=4;overflow=hidden;rotatable=0;points=[[0,0.5],[1,0.5]];portConstraint=eastwest;rounded=0;shadow=0;html=0;fillColor=#a0522d;strokeColor=#6D1F00;fontColor=#ffffff;" parent="sq3aHIqoVILuNet5_geI-8" vertex="1"><mxGeometry y="26" width="160" height="26" as="geometry"/></mxCell><mxCell id="sq3aHIqoVILuNet5_geI-10" value="" style="line;html=1;strokeWidth=1;align=left;verticalAlign=middle;spacingTop=-1;spacingLeft=3;spacingRight=3;rotatable=0;labelPosition=right;points=[];portConstraint=eastwest;fillColor=#a0522d;strokeColor=#6D1F00;fontColor=#ffffff;" parent="sq3aHIqoVILuNet5_geI-8" vertex="1"><mxGeometry y="52" width="160" height="8" as="geometry"/></mxCell><mxCell id="sq3aHIqoVILuNet5_geI-12" value="+begins()" style="text;align=left;verticalAlign=top;spacingLeft=4;spacingRight=4;overflow=hidden;rotatable=0;points=[[0,0.5],[1,0.5]];portConstraint=eastwest;fillColor=#a0522d;strokeColor=#6D1F00;fontColor=#ffffff;" parent="sq3aHIqoVILuNet5_geI-8" vertex="1"><mxGeometry y="60" width="160" height="30" as="geometry"/></mxCell><mxCell id="sq3aHIqoVILuNet5_geI-13" value="+ends()" style="text;align=left;verticalAlign=top;spacingLeft=4;spacingRight=4;overflow=hidden;rotatable=0;points=[[0,0.5],[1,0.5]];portConstraint=eastwest;fillColor=#a0522d;strokeColor=#6D1F00;fontColor=#ffffff;" parent="sq3aHIqoVILuNet5_geI-8" vertex="1"><mxGeometry y="90" width="160" height="30" as="geometry"/></mxCell><mxCell id="sq3aHIqoVILuNet5_geI-14" value="+get()" style="text;align=left;verticalAlign=top;spacingLeft=4;spacingRight=4;overflow=hidden;rotatable=0;points=[[0,0.5],[1,0.5]];portConstraint=eastwest;fillColor=#a0522d;strokeColor=#6D1F00;fontColor=#ffffff;" parent="sq3aHIqoVILuNet5_geI-8" vertex="1"><mxGeometry y="120" width="160" height="30" as="geometry"/></mxCell><mxCell id="sq3aHIqoVILuNet5_geI-28" value="" style="endArrow=diamondThin;endFill=1;endSize=24;html=1;rounded=0;entryX=0;entryY=0.5;entryDx=0;entryDy=0;exitX=1;exitY=0.5;exitDx=0;exitDy=0;fillColor=#a0522d;strokeColor=#6D1F00;" parent="WIyWlLk6GJQsqaUBKTNV-1" source="1vH7liSv2I_OhQFEqAJn-26" target="1vH7liSv2I_OhQFEqAJn-41" edge="1"><mxGeometry width="160" relative="1" as="geometry"><mxPoint x="358" y="895" as="sourcePoint"/><mxPoint x="250" y="895" as="targetPoint"/></mxGeometry></mxCell><mxCell id="0" value="HeroModel" style="swimlane;fontStyle=2;align=center;verticalAlign=top;childLayout=stackLayout;horizontal=1;startSize=26;horizontalStack=0;resizeParent=1;resizeLast=0;collapsible=1;marginBottom=0;rounded=0;shadow=0;strokeWidth=1;fillColor=#a0522d;strokeColor=#6D1F00;fontColor=#ffffff;" vertex="1" parent="WIyWlLk6GJQsqaUBKTNV-1"><mxGeometry x="590" y="1041" width="160" height="58" as="geometry"><mxRectangle x="230" y="140" width="160" height="26" as="alternateBounds"/></mxGeometry></mxCell><mxCell id="1" value="+InputHandling" style="text;align=left;verticalAlign=top;spacingLeft=4;spacingRight=4;overflow=hidden;rotatable=0;points=[[0,0.5],[1,0.5]];portConstraint=eastwest;fillColor=#a0522d;strokeColor=#6D1F00;fontColor=#ffffff;" vertex="1" parent="0"><mxGeometry y="26" width="160" height="24" as="geometry"/></mxCell><mxCell id="2" value="" style="line;html=1;strokeWidth=1;align=left;verticalAlign=middle;spacingTop=-1;spacingLeft=3;spacingRight=3;rotatable=0;labelPosition=right;points=[];portConstraint=eastwest;fillColor=#a0522d;strokeColor=#6D1F00;fontColor=#ffffff;" vertex="1" parent="0"><mxGeometry y="50" width="160" height="8" as="geometry"/></mxCell><mxCell id="5" value="" style="endArrow=block;endSize=10;endFill=0;shadow=0;strokeWidth=1;rounded=0;edgeStyle=elbowEdgeStyle;elbow=vertical;exitX=0.5;exitY=0;exitDx=0;exitDy=0;fillColor=#a0522d;strokeColor=#6D1F00;entryX=0.5;entryY=1;entryDx=0;entryDy=0;" edge="1" parent="WIyWlLk6GJQsqaUBKTNV-1" source="0" target="1vH7liSv2I_OhQFEqAJn-24"><mxGeometry width="160" relative="1" as="geometry"><mxPoint x="670" y="1041" as="sourcePoint"/><mxPoint x="700" y="940" as="targetPoint"/></mxGeometry></mxCell></root></mxGraphModel></diagram></mxfile>